HIERARCHY
ROOT joint_Root
{
	OFFSET 0.0 0.0 0.0
	CHANNELS 6 Xposition Yposition Zposition Zrotation Xrotation Yrotation 
	JOINT Hips
	{
		OFFSET -17.1583 93.1646 452.98
		CHANNELS 6 Xposition Yposition Zposition Zrotation Xrotation Yrotation 
		JOINT Spine
		{
			OFFSET 15.7357 0.0 0.0
			CHANNELS 6 Xposition Yposition Zposition Zrotation Xrotation Yrotation 
			JOINT Chest
			{
				OFFSET 8.98455 -0.406207 0.0
				CHANNELS 6 Xposition Yposition Zposition Zrotation Xrotation Yrotation 
				JOINT Neck
				{
					OFFSET 16.3773 0.0 0.0
					CHANNELS 6 Xposition Yposition Zposition Zrotation Xrotation Yrotation 
					JOINT Head
					{
						OFFSET 6.45672 0.0 0.0
						CHANNELS 6 Xposition Yposition Zposition Zrotation Xrotation Yrotation 
						End Site
						{
							OFFSET 0.0 0.0 0.0
						}
					}
				}
				JOINT Shoulder_L
				{
					OFFSET 12.9942 -0.242716 4.98039
					CHANNELS 6 Xposition Yposition Zposition Zrotation Xrotation Yrotation 
					JOINT UpperArm_L
					{
						OFFSET 5.34809 0.0 0.0
						CHANNELS 6 Xposition Yposition Zposition Zrotation Xrotation Yrotation 
						JOINT LowerArm_L
						{
							OFFSET 24.3286 1.87007e-05 0.0
							CHANNELS 6 Xposition Yposition Zposition Zrotation Xrotation Yrotation 
							JOINT Hand_L
							{
								OFFSET 22.2916 0.0 0.0
								CHANNELS 6 Xposition Yposition Zposition Zrotation Xrotation Yrotation 
								End Site
								{
									OFFSET 0.0 0.0 0.0
								}
							}
						}
					}
				}
				JOINT Shoulder_R
				{
					OFFSET 12.9945 -0.242716 -4.98039
					CHANNELS 6 Xposition Yposition Zposition Zrotation Xrotation Yrotation 
					JOINT UpperArm_R
					{
						OFFSET -5.34813 0.0 0.0
						CHANNELS 6 Xposition Yposition Zposition Zrotation Xrotation Yrotation 
						JOINT LowerArm_R
						{
							OFFSET -24.3289 0.000322201 0.0
							CHANNELS 6 Xposition Yposition Zposition Zrotation Xrotation Yrotation 
							JOINT Hand_R
							{
								OFFSET -22.2915 -0.000108084 0.0
								CHANNELS 6 Xposition Yposition Zposition Zrotation Xrotation Yrotation 
								End Site
								{
									OFFSET 0.0 0.0 0.0
								}
							}
						}
					}
				}
			}
		}
		JOINT UpperLeg_L
		{
			OFFSET -2.19248 -6.46944 0.0
			CHANNELS 6 Xposition Yposition Zposition Zrotation Xrotation Yrotation 
			JOINT LowerLeg_L
			{
				OFFSET 39.0811 0.0 -1.23785e-05
				CHANNELS 6 Xposition Yposition Zposition Zrotation Xrotation Yrotation 
				JOINT Foot_L
				{
					OFFSET 40.9854 0.0 -1.26872e-05
					CHANNELS 6 Xposition Yposition Zposition Zrotation Xrotation Yrotation 
					JOINT Toes_L
					{
						OFFSET 11.7543 0.0 0.0
						CHANNELS 6 Xposition Yposition Zposition Zrotation Xrotation Yrotation 
						End Site
						{
							OFFSET 0.0 0.0 0.0
						}
					}
				}
			}
		}
		JOINT UpperLeg_R
		{
			OFFSET -2.19251 6.46944 0.0
			CHANNELS 6 Xposition Yposition Zposition Zrotation Xrotation Yrotation 
			JOINT LowerLeg_R
			{
				OFFSET -39.0811 -0.00228153 -0.0401928
				CHANNELS 6 Xposition Yposition Zposition Zrotation Xrotation Yrotation 
				JOINT Foot_R
				{
					OFFSET -40.9854 0.0 0.0
					CHANNELS 6 Xposition Yposition Zposition Zrotation Xrotation Yrotation 
					JOINT Toes_R
					{
						OFFSET -11.7543 0.0 0.0
						CHANNELS 6 Xposition Yposition Zposition Zrotation Xrotation Yrotation 
						End Site
						{
							OFFSET 0.0 0.0 0.0
						}
					}
				}
			}
		}
	}
}
MOTION
Frames:	4
Frame Time:	0.0333333
0.000000 0.000000 0.000000 0.000000 0.000000 -0.000000 3.045130 92.622200 2.469630 88.350900 -2.529480 3.347230 15.735700 0.000005 -0.000001 115.610000 86.367400 -115.962000 8.984550 -0.406207 -0.000000 -1.204990 3.167220 -0.670639 16.377300 -0.000001 -0.000001 1.973910 0.895034 -0.373653 6.456720 -0.000001 -0.000000 4.775740 0.075842 5.564610 12.994200 -0.242716 4.980390 -92.410200 7.208780 -71.457300 5.348090 -0.000007 -0.000001 -71.580200 24.818000 -2.665340 24.328600 0.000019 0.000005 9.482100 29.280300 -18.854900 22.291600 -0.000001 0.000005 -9.940880 5.036630 6.522480 12.994500 -0.242716 -4.980390 88.483800 5.438680 -74.396400 -5.348130 -0.000001 -0.000004 -73.960500 30.077500 -2.547580 -24.328900 0.000322 -0.000009 1.306370 4.605790 -15.866200 -22.291500 -0.000108 -0.000004 1.189600 5.277320 0.699627 -2.192480 -6.469440 -0.000000 -176.375000 -7.950950 2.545520 39.081100 -0.000007 -0.000012 0.066728 -0.208023 17.784900 40.985400 -0.000006 -0.000013 2.329150 10.468200 -71.055900 11.754300 -0.000000 0.000003 -0.001513 0.190069 -8.866080 -2.192510 6.469440 -0.000001 173.814000 3.611040 -174.773000 -39.081100 -0.002282 -0.040193 -0.008953 0.063804 10.903200 -40.985400 0.000008 0.000006 -11.453500 7.338440 -66.497200 -11.754300 -0.000006 -0.000006 -0.011915 0.285095 -4.986600
0.000000 0.000000 0.000000 0.000000 0.000000 -0.000000 2.959360 92.677100 2.438510 88.311000 -2.467770 2.996910 15.735700 0.000005 -0.000001 116.120000 86.405700 -116.355000 8.984550 -0.406207 -0.000000 -1.305360 3.182740 -0.433069 16.377300 -0.000001 -0.000001 1.721400 0.754981 0.140892 6.456720 -0.000001 -0.000000 4.288980 0.162050 5.748970 12.994200 -0.242716 4.980390 -92.467400 7.337000 -71.354500 5.348090 -0.000007 -0.000001 -70.419100 24.827600 -3.683590 24.328600 0.000019 0.000005 9.231620 30.018100 -17.998000 22.291600 -0.000001 0.000005 -12.059600 5.127470 4.461780 12.994500 -0.242716 -4.980390 88.536200 5.244430 -74.380500 -5.348130 -0.000001 -0.000004 -73.938500 29.518200 -2.526120 -24.328900 0.000322 -0.000009 1.320280 4.597020 -16.055500 -22.291500 -0.000108 -0.000004 1.181070 5.275030 0.761897 -2.192480 -6.469440 -0.000000 -176.287000 -8.060290 2.362180 39.081100 -0.000007 -0.000012 0.063435 -0.202358 17.405200 40.985400 -0.000006 -0.000013 2.252880 10.671600 -70.943100 11.754300 -0.000000 0.000003 -0.001487 0.189727 -8.880010 -2.192510 6.469440 -0.000001 173.855000 3.819790 -174.808000 -39.081100 -0.002282 -0.040193 -0.008071 0.063320 10.214200 -40.985400 0.000008 0.000006 -11.988200 7.456020 -65.911700 -11.754300 -0.000006 -0.000006 -0.011624 0.283067 -5.069640
0.000000 0.000000 0.000000 0.000000 0.000000 -0.000000 2.846260 92.733000 2.369220 88.293500 -2.317720 2.527660 15.735700 0.000005 -0.000001 116.832000 86.487600 -116.925000 8.984550 -0.406207 -0.000000 -1.495560 3.177610 -0.145449 16.377300 -0.000001 -0.000001 1.491170 0.655976 0.608002 6.456720 -0.000001 -0.000000 3.705700 0.188623 6.218830 12.994200 -0.242716 4.980390 -92.497300 7.422990 -71.346500 5.348090 -0.000007 -0.000001 -68.718300 23.854300 -4.989520 24.328600 0.000019 0.000005 8.792080 30.638400 -16.882800 22.291600 -0.000001 0.000005 -14.662200 5.192520 2.898120 12.994500 -0.242716 -4.980390 88.571000 5.114370 -74.366500 -5.348130 -0.000001 -0.000004 -73.823900 28.761500 -2.446110 -24.328900 0.000322 -0.000009 1.220970 4.216120 -16.180100 -22.291500 -0.000108 -0.000004 1.232000 5.279850 0.630378 -2.192480 -6.469440 -0.000000 -176.207000 -8.272690 2.016730 39.081100 -0.000007 -0.000012 0.060167 -0.196233 17.046200 40.985400 -0.000006 -0.000013 2.190190 11.040100 -70.832700 11.754300 -0.000000 0.000003 -0.001299 0.187197 -8.982830 -2.192510 6.469440 -0.000001 173.980000 4.013840 -175.304000 -39.081100 -0.002282 -0.040193 -0.006243 0.053354 10.180800 -40.985400 0.000008 0.000006 -11.972500 7.443450 -65.749900 -11.754300 -0.000006 -0.000006 -0.011492 0.282138 -5.107660
0.000000 0.000000 0.000000 0.000000 0.000000 -0.000000 2.723010 92.777600 2.350260 88.331600 -2.062250 2.178770 15.735700 0.000005 -0.000001 116.690000 86.547400 -116.600000 8.984550 -0.406207 -0.000000 -1.599740 3.093450 0.224804 16.377300 -0.000001 -0.000001 1.187550 0.570871 1.080320 6.456720 -0.000001 -0.000000 3.101640 0.251853 6.759090 12.994200 -0.242716 4.980390 -92.502900 7.429270 -71.322000 5.348090 -0.000007 -0.000001 -66.636000 21.383200 -6.523330 24.328600 0.000019 0.000005 8.181620 31.286000 -15.475200 22.291600 -0.000001 0.000005 -16.687700 5.222310 2.152440 12.994500 -0.242716 -4.980390 88.596900 5.010690 -74.335000 -5.348130 -0.000001 -0.000004 -73.539600 27.893300 -2.432360 -24.328900 0.000322 -0.000009 1.249350 4.304760 -16.213800 -22.291500 -0.000108 -0.000004 1.334710 5.279140 0.649684 -2.192480 -6.469440 -0.000000 -176.153000 -8.393160 1.801150 39.081100 -0.000007 -0.000012 0.055844 -0.186340 16.682900 40.985400 -0.000006 -0.000013 2.109100 11.410600 -70.714900 11.754300 -0.000000 0.000003 -0.001471 0.189515 -8.888620 -2.192510 6.469440 -0.000001 174.053000 4.183720 -175.600000 -39.081100 -0.002282 -0.040193 -0.004790 0.045621 10.103100 -40.985400 0.000008 0.000006 -12.079000 7.341600 -65.647900 -11.754300 -0.000006 -0.000006 -0.011489 0.282111 -5.108790
